<mxfile host="app.diagrams.net" agent="Mozilla/5.0 (Windows NT 10.0; Win64; x64) AppleWebKit/537.36 (KHTML, like Gecko) Chrome/128.0.0.0 Safari/537.36 Edg/128.0.0.0" version="24.7.14">
  <diagram name="Page-1" id="llaCwsJbwQGVnoqfy9CV">
    <mxGraphModel dx="1449" dy="651" grid="1" gridSize="10" guides="1" tooltips="1" connect="1" arrows="1" fold="1" page="1" pageScale="1" pageWidth="850" pageHeight="1100" math="0" shadow="0">
      <root>
        <mxCell id="0" />
        <mxCell id="1" parent="0" />
        <mxCell id="y9Y15gHdD0dzV6Nar54J-51" value="sa_mesh_run_within_tile" style="rounded=0;whiteSpace=wrap;html=1;fillColor=#F8CECC;" vertex="1" parent="1">
          <mxGeometry x="439.99999999999994" y="20" width="165" height="40" as="geometry" />
        </mxCell>
        <mxCell id="y9Y15gHdD0dzV6Nar54J-52" style="edgeStyle=orthogonalEdgeStyle;rounded=0;orthogonalLoop=1;jettySize=auto;html=1;entryX=0.5;entryY=0;entryDx=0;entryDy=0;" edge="1" parent="1" source="y9Y15gHdD0dzV6Nar54J-53" target="y9Y15gHdD0dzV6Nar54J-71">
          <mxGeometry relative="1" as="geometry" />
        </mxCell>
        <mxCell id="y9Y15gHdD0dzV6Nar54J-53" value="&lt;b&gt;run_within_tile_init&lt;/b&gt;" style="rounded=1;whiteSpace=wrap;html=1;" vertex="1" parent="1">
          <mxGeometry x="142.10999999999999" y="330" width="120" height="60" as="geometry" />
        </mxCell>
        <mxCell id="y9Y15gHdD0dzV6Nar54J-54" value="" style="group" vertex="1" connectable="0" parent="1">
          <mxGeometry x="101.13" y="580" width="228" height="120" as="geometry" />
        </mxCell>
        <mxCell id="y9Y15gHdD0dzV6Nar54J-55" value="&lt;div style=&quot;&quot;&gt;&lt;div style=&quot;text-align: center;&quot;&gt;&lt;br&gt;&lt;/div&gt;&lt;/div&gt;" style="whiteSpace=wrap;html=1;rounded=1;align=left;fillColor=#FFE599;" vertex="1" parent="y9Y15gHdD0dzV6Nar54J-54">
          <mxGeometry width="227.99999999999997" height="110.76923076923076" as="geometry" />
        </mxCell>
        <mxCell id="y9Y15gHdD0dzV6Nar54J-56" value="&lt;div&gt;Call processes:&lt;/div&gt;&lt;div&gt;call irrigation_init(fls, shd, cm)&lt;br&gt;&lt;/div&gt;&lt;div&gt;&lt;span style=&quot;background-color: initial;&quot;&gt;mountain_init&lt;/span&gt;&lt;span style=&quot;background-color: initial;&quot;&gt;&amp;nbsp;&lt;/span&gt;&lt;span style=&quot;background-color: initial;&quot;&gt;(fls, shd, cm)&lt;/span&gt;&lt;span style=&quot;background-color: initial;&quot;&gt;&amp;nbsp;&amp;nbsp;&lt;/span&gt;&lt;br&gt;&lt;/div&gt;&lt;div&gt;&lt;span style=&quot;background-color: initial;&quot;&gt;RUNCLASS36_init&amp;nbsp;&lt;/span&gt;&lt;span style=&quot;background-color: initial;&quot;&gt;(fls, shd, cm)&lt;/span&gt;&lt;/div&gt;&lt;div&gt;&amp;nbsp; &amp;nbsp; &amp;nbsp; runsvs_mesh_init (fls, shd, cm)&lt;/div&gt;&lt;div&gt;bflm_init&amp;nbsp;(fls, shd, cm)&lt;/div&gt;&lt;div&gt;&amp;nbsp; runci_init&amp;nbsp;(fls, shd, cm)&lt;/div&gt;&lt;div&gt;&lt;br&gt;&lt;/div&gt;" style="text;html=1;align=center;verticalAlign=middle;whiteSpace=wrap;rounded=0;" vertex="1" parent="y9Y15gHdD0dzV6Nar54J-54">
          <mxGeometry x="14.06" y="12" width="199.9" height="98" as="geometry" />
        </mxCell>
        <mxCell id="y9Y15gHdD0dzV6Nar54J-57" style="edgeStyle=orthogonalEdgeStyle;rounded=0;orthogonalLoop=1;jettySize=auto;html=1;exitX=0.5;exitY=1;exitDx=0;exitDy=0;" edge="1" parent="1" source="y9Y15gHdD0dzV6Nar54J-55">
          <mxGeometry relative="1" as="geometry">
            <mxPoint x="207.89" y="700" as="sourcePoint" />
            <mxPoint x="209.89" y="720" as="targetPoint" />
          </mxGeometry>
        </mxCell>
        <mxCell id="y9Y15gHdD0dzV6Nar54J-58" value="&lt;b&gt;run_within_tile&lt;/b&gt;" style="rounded=1;whiteSpace=wrap;html=1;" vertex="1" parent="1">
          <mxGeometry x="562" y="320" width="120" height="60" as="geometry" />
        </mxCell>
        <mxCell id="y9Y15gHdD0dzV6Nar54J-59" value="" style="rounded=0;orthogonalLoop=1;jettySize=auto;html=1;" edge="1" parent="1" source="y9Y15gHdD0dzV6Nar54J-60" target="y9Y15gHdD0dzV6Nar54J-62">
          <mxGeometry relative="1" as="geometry" />
        </mxCell>
        <mxCell id="y9Y15gHdD0dzV6Nar54J-60" value="Call Processes:&lt;div&gt;&lt;span style=&quot;background-color: initial;&quot;&gt;mountain_within_tile&amp;nbsp;&lt;/span&gt;&lt;span style=&quot;background-color: initial;&quot;&gt;(fls, shd, cm)&lt;/span&gt;&lt;br&gt;&lt;/div&gt;&lt;div&gt;&lt;div&gt;&amp;nbsp; &amp;nbsp; &amp;nbsp; &amp;nbsp; call RUNCLASS36_within_tile(fls, shd, cm)&lt;/div&gt;&lt;div&gt;&amp;nbsp; &amp;nbsp; &amp;nbsp; &amp;nbsp; call runsvs_mesh_within_tile(fls, shd, cm)&lt;/div&gt;&lt;div&gt;&amp;nbsp; &amp;nbsp; &amp;nbsp; &amp;nbsp; call bflm_within_tile(fls, shd, cm)&lt;/div&gt;&lt;div&gt;&amp;nbsp; &amp;nbsp; &amp;nbsp; &amp;nbsp; call runci_within_tile(fls, shd, cm)&lt;/div&gt;&lt;/div&gt;" style="whiteSpace=wrap;html=1;rounded=1;fillColor=#FFE599;" vertex="1" parent="1">
          <mxGeometry x="507.14" y="720" width="271.22" height="120" as="geometry" />
        </mxCell>
        <mxCell id="y9Y15gHdD0dzV6Nar54J-114" style="rounded=0;orthogonalLoop=1;jettySize=auto;html=1;entryX=0.5;entryY=0;entryDx=0;entryDy=0;" edge="1" parent="1" source="y9Y15gHdD0dzV6Nar54J-62" target="y9Y15gHdD0dzV6Nar54J-111">
          <mxGeometry relative="1" as="geometry" />
        </mxCell>
        <mxCell id="y9Y15gHdD0dzV6Nar54J-62" value="&lt;div&gt;call run_within_tile_mpi_isend(fls, shd, cm)&lt;br&gt;&lt;/div&gt;call run_within_tile_stas_update(fls, shd, cm)" style="whiteSpace=wrap;html=1;rounded=1;fillColor=#CCFFCC;" vertex="1" parent="1">
          <mxGeometry x="522.03" y="860" width="245.82" height="60" as="geometry" />
        </mxCell>
        <mxCell id="y9Y15gHdD0dzV6Nar54J-63" value="&lt;b&gt;run_within_tile_finalize&lt;/b&gt;" style="rounded=1;whiteSpace=wrap;html=1;" vertex="1" parent="1">
          <mxGeometry x="628.1" y="1230" width="158.97" height="40" as="geometry" />
        </mxCell>
        <mxCell id="y9Y15gHdD0dzV6Nar54J-64" value="Call processes:&lt;div&gt;&lt;div&gt;RUNCLASS36_finalize&amp;nbsp;(fls, shd, cm)&lt;/div&gt;&lt;div&gt;&amp;nbsp; &amp;nbsp; &amp;nbsp; &amp;nbsp; bflm_finalize&amp;nbsp;(fls, shd, cm)&lt;/div&gt;&lt;div&gt;&amp;nbsp; &amp;nbsp; &amp;nbsp; &amp;nbsp; runsvs_mesh_finalize&amp;nbsp;(fls, shd, cm)&lt;/div&gt;&lt;/div&gt;" style="whiteSpace=wrap;html=1;rounded=1;fillColor=#FFE599;" vertex="1" parent="1">
          <mxGeometry x="605" y="1460" width="233.09" height="80" as="geometry" />
        </mxCell>
        <mxCell id="y9Y15gHdD0dzV6Nar54J-65" style="edgeStyle=orthogonalEdgeStyle;rounded=0;orthogonalLoop=1;jettySize=auto;html=1;entryX=0.5;entryY=0;entryDx=0;entryDy=0;" edge="1" parent="1" source="y9Y15gHdD0dzV6Nar54J-66" target="y9Y15gHdD0dzV6Nar54J-87">
          <mxGeometry relative="1" as="geometry" />
        </mxCell>
        <mxCell id="y9Y15gHdD0dzV6Nar54J-66" value="&lt;b&gt;run_within_tile_stas_update&lt;/b&gt;" style="rounded=1;whiteSpace=wrap;html=1;" vertex="1" parent="1">
          <mxGeometry x="342.72" y="1220" width="167.59" height="60" as="geometry" />
        </mxCell>
        <mxCell id="y9Y15gHdD0dzV6Nar54J-67" style="edgeStyle=orthogonalEdgeStyle;rounded=0;orthogonalLoop=1;jettySize=auto;html=1;exitX=0.5;exitY=1;exitDx=0;exitDy=0;entryX=0.5;entryY=0;entryDx=0;entryDy=0;" edge="1" parent="1" source="y9Y15gHdD0dzV6Nar54J-68" target="y9Y15gHdD0dzV6Nar54J-93">
          <mxGeometry relative="1" as="geometry" />
        </mxCell>
        <mxCell id="y9Y15gHdD0dzV6Nar54J-68" value="Updates tile variables &quot;vs%tile%*:&lt;div&gt;lqwssno,&amp;nbsp;tsno, albt,&amp;nbsp;zpnd,&amp;nbsp;dzsolhyd,&amp;nbsp;fzwssol,&amp;nbsp;rchg,&amp;nbsp;lkg,&amp;nbsp;rff, etc.&lt;/div&gt;" style="whiteSpace=wrap;html=1;rounded=1;" vertex="1" parent="1">
          <mxGeometry x="311" y="1480" width="228.36" height="80" as="geometry" />
        </mxCell>
        <mxCell id="y9Y15gHdD0dzV6Nar54J-70" value="&lt;div&gt;ro%RUNTILE == True&lt;/div&gt;" style="rhombus;whiteSpace=wrap;html=1;rounded=1;fillColor=#F19C99;" vertex="1" parent="1">
          <mxGeometry x="113.92999999999998" y="500" width="176.36" height="50" as="geometry" />
        </mxCell>
        <mxCell id="y9Y15gHdD0dzV6Nar54J-71" value="Initialize variables and parameters e.g. fls, shd,&amp;nbsp;cm, etc." style="rounded=1;whiteSpace=wrap;html=1;" vertex="1" parent="1">
          <mxGeometry x="135.06210526315786" y="409.9989820359281" width="134.10526315789477" height="56.40718562874251" as="geometry" />
        </mxCell>
        <mxCell id="y9Y15gHdD0dzV6Nar54J-72" style="edgeStyle=orthogonalEdgeStyle;rounded=0;orthogonalLoop=1;jettySize=auto;html=1;entryX=0.466;entryY=0.017;entryDx=0;entryDy=0;entryPerimeter=0;" edge="1" parent="1" source="y9Y15gHdD0dzV6Nar54J-71" target="y9Y15gHdD0dzV6Nar54J-70">
          <mxGeometry relative="1" as="geometry" />
        </mxCell>
        <mxCell id="y9Y15gHdD0dzV6Nar54J-103" style="edgeStyle=orthogonalEdgeStyle;rounded=0;orthogonalLoop=1;jettySize=auto;html=1;exitX=0.5;exitY=1;exitDx=0;exitDy=0;" edge="1" parent="1" source="y9Y15gHdD0dzV6Nar54J-74" target="y9Y15gHdD0dzV6Nar54J-101">
          <mxGeometry relative="1" as="geometry" />
        </mxCell>
        <mxCell id="y9Y15gHdD0dzV6Nar54J-74" value="call run_within_tile_stas_update(fls, shd, cm)&lt;div&gt;call irrigation_open_output(fls, shd, cm)&lt;br&gt;&lt;/div&gt;" style="rounded=1;whiteSpace=wrap;html=1;fillColor=#CCFFCC;" vertex="1" parent="1">
          <mxGeometry x="85.86999999999999" y="720" width="246.62" height="70" as="geometry" />
        </mxCell>
        <mxCell id="y9Y15gHdD0dzV6Nar54J-75" value="end subroutine" style="whiteSpace=wrap;html=1;rounded=1;" vertex="1" parent="1">
          <mxGeometry x="164.27" y="920" width="111.19" height="40" as="geometry" />
        </mxCell>
        <mxCell id="y9Y15gHdD0dzV6Nar54J-107" style="edgeStyle=orthogonalEdgeStyle;rounded=0;orthogonalLoop=1;jettySize=auto;html=1;exitX=0.5;exitY=1;exitDx=0;exitDy=0;" edge="1" parent="1" source="y9Y15gHdD0dzV6Nar54J-77" target="y9Y15gHdD0dzV6Nar54J-106">
          <mxGeometry relative="1" as="geometry" />
        </mxCell>
        <mxCell id="y9Y15gHdD0dzV6Nar54J-77" value="&lt;div&gt;ro%RUNTILE == True&lt;/div&gt;" style="rhombus;whiteSpace=wrap;html=1;rounded=1;fillColor=#F19C99;" vertex="1" parent="1">
          <mxGeometry x="532.1399999999999" y="480" width="193.82" height="50" as="geometry" />
        </mxCell>
        <mxCell id="y9Y15gHdD0dzV6Nar54J-78" value="Initialize variables and parameters e.g. fls, shd, cm, etc." style="rounded=1;whiteSpace=wrap;html=1;" vertex="1" parent="1">
          <mxGeometry x="555.3" y="400" width="148" height="50" as="geometry" />
        </mxCell>
        <mxCell id="y9Y15gHdD0dzV6Nar54J-79" style="edgeStyle=orthogonalEdgeStyle;rounded=0;orthogonalLoop=1;jettySize=auto;html=1;exitX=0.5;exitY=1;exitDx=0;exitDy=0;entryX=0.443;entryY=0.018;entryDx=0;entryDy=0;entryPerimeter=0;" edge="1" parent="1" source="y9Y15gHdD0dzV6Nar54J-58" target="y9Y15gHdD0dzV6Nar54J-78">
          <mxGeometry relative="1" as="geometry" />
        </mxCell>
        <mxCell id="y9Y15gHdD0dzV6Nar54J-80" style="edgeStyle=orthogonalEdgeStyle;rounded=0;orthogonalLoop=1;jettySize=auto;html=1;entryX=0.5;entryY=0;entryDx=0;entryDy=0;" edge="1" parent="1" source="y9Y15gHdD0dzV6Nar54J-78" target="y9Y15gHdD0dzV6Nar54J-77">
          <mxGeometry relative="1" as="geometry" />
        </mxCell>
        <mxCell id="y9Y15gHdD0dzV6Nar54J-81" value="call run_within_tile_mpi_irecv(fls, shd, cm)" style="whiteSpace=wrap;html=1;fillColor=#CCFFCC;rounded=1;" vertex="1" parent="1">
          <mxGeometry x="507.13999999999993" y="660" width="253.13" height="30" as="geometry" />
        </mxCell>
        <mxCell id="y9Y15gHdD0dzV6Nar54J-82" style="edgeStyle=orthogonalEdgeStyle;rounded=0;orthogonalLoop=1;jettySize=auto;html=1;entryX=0.471;entryY=-0.023;entryDx=0;entryDy=0;entryPerimeter=0;" edge="1" parent="1" source="y9Y15gHdD0dzV6Nar54J-81" target="y9Y15gHdD0dzV6Nar54J-60">
          <mxGeometry relative="1" as="geometry" />
        </mxCell>
        <mxCell id="y9Y15gHdD0dzV6Nar54J-83" value="end subroutine" style="whiteSpace=wrap;html=1;rounded=1;" vertex="1" parent="1">
          <mxGeometry x="592.0600000000001" y="990" width="111.19" height="40" as="geometry" />
        </mxCell>
        <mxCell id="y9Y15gHdD0dzV6Nar54J-84" style="edgeStyle=orthogonalEdgeStyle;rounded=0;orthogonalLoop=1;jettySize=auto;html=1;entryX=0.5;entryY=0;entryDx=0;entryDy=0;" edge="1" parent="1" source="y9Y15gHdD0dzV6Nar54J-85" target="y9Y15gHdD0dzV6Nar54J-68">
          <mxGeometry relative="1" as="geometry" />
        </mxCell>
        <mxCell id="y9Y15gHdD0dzV6Nar54J-85" value="&lt;div&gt;ro%RUNTILE == True&lt;/div&gt;" style="rhombus;whiteSpace=wrap;html=1;rounded=1;fillColor=#F19C99;" vertex="1" parent="1">
          <mxGeometry x="332.26" y="1390" width="186.89" height="60" as="geometry" />
        </mxCell>
        <mxCell id="y9Y15gHdD0dzV6Nar54J-86" style="edgeStyle=orthogonalEdgeStyle;rounded=0;orthogonalLoop=1;jettySize=auto;html=1;entryX=0.5;entryY=0;entryDx=0;entryDy=0;" edge="1" parent="1" source="y9Y15gHdD0dzV6Nar54J-87" target="y9Y15gHdD0dzV6Nar54J-85">
          <mxGeometry relative="1" as="geometry" />
        </mxCell>
        <mxCell id="y9Y15gHdD0dzV6Nar54J-87" value="Initialize variables and parameters e.g. fls, shd, cm, etc." style="rounded=1;whiteSpace=wrap;html=1;" vertex="1" parent="1">
          <mxGeometry x="346.25" y="1306.41" width="157.87" height="50" as="geometry" />
        </mxCell>
        <mxCell id="y9Y15gHdD0dzV6Nar54J-88" style="edgeStyle=orthogonalEdgeStyle;rounded=0;orthogonalLoop=1;jettySize=auto;html=1;exitX=0.5;exitY=1;exitDx=0;exitDy=0;entryX=0.5;entryY=0;entryDx=0;entryDy=0;" edge="1" parent="1" source="y9Y15gHdD0dzV6Nar54J-89" target="y9Y15gHdD0dzV6Nar54J-64">
          <mxGeometry relative="1" as="geometry" />
        </mxCell>
        <mxCell id="y9Y15gHdD0dzV6Nar54J-89" value="&lt;div&gt;ro%RUNTILE == True&lt;/div&gt;" style="rhombus;whiteSpace=wrap;html=1;rounded=1;fillColor=#F19C99;" vertex="1" parent="1">
          <mxGeometry x="628.1" y="1380" width="186.89" height="60" as="geometry" />
        </mxCell>
        <mxCell id="y9Y15gHdD0dzV6Nar54J-90" style="edgeStyle=orthogonalEdgeStyle;rounded=0;orthogonalLoop=1;jettySize=auto;html=1;entryX=0.5;entryY=0;entryDx=0;entryDy=0;" edge="1" parent="1" source="y9Y15gHdD0dzV6Nar54J-91" target="y9Y15gHdD0dzV6Nar54J-89">
          <mxGeometry relative="1" as="geometry" />
        </mxCell>
        <mxCell id="y9Y15gHdD0dzV6Nar54J-91" value="Initialize variables and parameters e.g. fls, shd,&amp;nbsp;cm, etc." style="rounded=1;whiteSpace=wrap;html=1;" vertex="1" parent="1">
          <mxGeometry x="651.7821052631579" y="1299.998982035928" width="134.10526315789477" height="56.40718562874251" as="geometry" />
        </mxCell>
        <mxCell id="y9Y15gHdD0dzV6Nar54J-92" style="edgeStyle=orthogonalEdgeStyle;rounded=0;orthogonalLoop=1;jettySize=auto;html=1;entryX=0.421;entryY=0.035;entryDx=0;entryDy=0;entryPerimeter=0;" edge="1" parent="1" source="y9Y15gHdD0dzV6Nar54J-63" target="y9Y15gHdD0dzV6Nar54J-91">
          <mxGeometry relative="1" as="geometry" />
        </mxCell>
        <mxCell id="y9Y15gHdD0dzV6Nar54J-93" value="end subroutine" style="whiteSpace=wrap;html=1;rounded=1;" vertex="1" parent="1">
          <mxGeometry x="367.43999999999994" y="1590" width="111.19" height="40" as="geometry" />
        </mxCell>
        <mxCell id="y9Y15gHdD0dzV6Nar54J-94" value="end subroutine" style="whiteSpace=wrap;html=1;rounded=1;" vertex="1" parent="1">
          <mxGeometry x="667.1" y="1570" width="111.19" height="40" as="geometry" />
        </mxCell>
        <mxCell id="y9Y15gHdD0dzV6Nar54J-95" style="edgeStyle=orthogonalEdgeStyle;rounded=0;orthogonalLoop=1;jettySize=auto;html=1;entryX=0.5;entryY=0;entryDx=0;entryDy=0;" edge="1" parent="1" source="y9Y15gHdD0dzV6Nar54J-64" target="y9Y15gHdD0dzV6Nar54J-94">
          <mxGeometry relative="1" as="geometry" />
        </mxCell>
        <mxCell id="y9Y15gHdD0dzV6Nar54J-96" value="" style="group" vertex="1" connectable="0" parent="1">
          <mxGeometry x="-3.3306690738754696e-16" y="10" width="420" height="290" as="geometry" />
        </mxCell>
        <mxCell id="y9Y15gHdD0dzV6Nar54J-97" value="" style="rounded=0;whiteSpace=wrap;html=1;" vertex="1" parent="y9Y15gHdD0dzV6Nar54J-96">
          <mxGeometry width="419.99999999999994" height="290.00000000000006" as="geometry" />
        </mxCell>
        <mxCell id="y9Y15gHdD0dzV6Nar54J-98" value="&lt;font style=&quot;font-size: 9px;&quot;&gt;Dependencies&lt;/font&gt;&lt;div&gt;&lt;font size=&quot;1&quot;&gt;Modules\irrigation_demand\irrigation_demand_module.f90: irrigation_init&lt;br&gt;&lt;/font&gt;&lt;div&gt;&lt;div&gt;&lt;font style=&quot;font-size: 9px;&quot;&gt;Modules\mountain_module\mountain_module.f90: mountain_init&lt;/font&gt;&lt;/div&gt;&lt;div&gt;&lt;font style=&quot;font-size: 9px;&quot;&gt;LSS_Model\CLASS\3.6\sa_mesh_process\RUNCLASS36_config.f90: RUNCLASS36_init&lt;/font&gt;&lt;/div&gt;&lt;div&gt;&lt;font style=&quot;font-size: 9px;&quot;&gt;LSS_Model\SVS\svs1\src\runsvs_mesh.F90: runsvs_mesh_init&lt;/font&gt;&lt;/div&gt;&lt;div&gt;&lt;font style=&quot;font-size: 9px;&quot;&gt;Routing_Model\baseflow_module\baseflow_module.f90: bflm_init&lt;/font&gt;&lt;/div&gt;&lt;div&gt;&lt;font style=&quot;font-size: 9px;&quot;&gt;Modules\cropland_irrigation\cropland_irrigation_init.f90: runci_init&lt;/font&gt;&lt;/div&gt;&lt;/div&gt;&lt;div&gt;&lt;font size=&quot;1&quot; style=&quot;&quot;&gt;&lt;div style=&quot;&quot;&gt;Driver\MESH_Driver\sa_mesh_run_within_tile.f90: run_within_tile_stas_update&lt;/div&gt;&lt;div style=&quot;&quot;&gt;Modules\irrigation_demand\irrigation_demand_module.f90: irrigation_open_output&lt;/div&gt;&lt;/font&gt;&lt;/div&gt;&lt;div&gt;&lt;font size=&quot;1&quot; style=&quot;&quot;&gt;&lt;div style=&quot;&quot;&gt;Driver\MESH_Driver\sa_mesh_run_within_tile.f90: run_within_tile_mpi_irecv&lt;/div&gt;&lt;div style=&quot;&quot;&gt;Driver\MESH_Driver\sa_mesh_run_within_tile.f90: run_within_tile_stas_reset&lt;/div&gt;&lt;div style=&quot;&quot;&gt;Modules\mountain_module\mountain_module.f90: mountain_within_tile&lt;/div&gt;&lt;div style=&quot;&quot;&gt;LSS_Model\CLASS\3.6\sa_mesh_process\RUNCLASS36_module.f90: RUNCLASS36_within_tile&lt;/div&gt;&lt;div style=&quot;&quot;&gt;LSS_Model\SVS\svs1\src\runsvs_mesh.F90: runsvs_mesh_within_tile&lt;/div&gt;&lt;div style=&quot;&quot;&gt;Routing_Model\baseflow_module\baseflow_module.f90: bflm_within_tile&lt;/div&gt;&lt;div style=&quot;&quot;&gt;Modules\cropland_irrigation\cropland_irrigation_within_tile.f90: runci_within_tile&lt;/div&gt;&lt;div style=&quot;&quot;&gt;Driver\MESH_Driver\sa_mesh_run_within_tile.f90: run_within_tile_mpi_isend&lt;/div&gt;&lt;div style=&quot;&quot;&gt;Driver\MESH_Driver\sa_mesh_run_within_tile.f90: run_within_tile_stas_update&lt;/div&gt;&lt;div style=&quot;&quot;&gt;LSS_Model\CLASS\3.6\sa_mesh_process\RUNCLASS36_config.f90: RUNCLASS36_finalize&lt;/div&gt;&lt;div style=&quot;&quot;&gt;Routing_Model\baseflow_module\baseflow_module.f90: bflm_finalize&lt;/div&gt;&lt;div style=&quot;&quot;&gt;LSS_Model\SVS\svs1\src\runsvs_mesh.F90: runsvs_mesh_finalize&lt;/div&gt;&lt;/font&gt;&lt;/div&gt;&lt;/div&gt;" style="text;html=1;align=left;verticalAlign=middle;whiteSpace=wrap;rounded=0;" vertex="1" parent="y9Y15gHdD0dzV6Nar54J-96">
          <mxGeometry x="9.691500000000001" width="399.8084999999999" height="282.1621621621622" as="geometry" />
        </mxCell>
        <mxCell id="y9Y15gHdD0dzV6Nar54J-99" value="&lt;b&gt;subroutine&lt;/b&gt;&lt;div&gt;&lt;b&gt;run_within_tile_mpi_isend&lt;/b&gt;&lt;/div&gt;" style="rounded=1;whiteSpace=wrap;html=1;" vertex="1" parent="1">
          <mxGeometry x="129.86" y="1100" width="180" height="60" as="geometry" />
        </mxCell>
        <mxCell id="y9Y15gHdD0dzV6Nar54J-100" value="&lt;b&gt;subroutine run_within_tile_mpi_irecv&lt;/b&gt;" style="rounded=1;whiteSpace=wrap;html=1;" vertex="1" parent="1">
          <mxGeometry x="532.14" y="1100" width="180" height="60" as="geometry" />
        </mxCell>
        <mxCell id="y9Y15gHdD0dzV6Nar54J-101" value="&lt;ul&gt;&lt;li&gt;&lt;li&gt;Build MPI lists&lt;/li&gt;&lt;li&gt;Count active variables&lt;/li&gt;&lt;li&gt;Assign tile variables to list: model_variables_to_head&amp;nbsp; and model_variables_to_node&lt;/li&gt;&lt;/li&gt;&lt;/ul&gt;" style="whiteSpace=wrap;html=1;rounded=1;align=left;" vertex="1" parent="1">
          <mxGeometry x="90.53" y="810" width="236.26" height="90" as="geometry" />
        </mxCell>
        <mxCell id="y9Y15gHdD0dzV6Nar54J-104" style="edgeStyle=orthogonalEdgeStyle;rounded=0;orthogonalLoop=1;jettySize=auto;html=1;exitX=0.5;exitY=1;exitDx=0;exitDy=0;entryX=0.417;entryY=0.042;entryDx=0;entryDy=0;entryPerimeter=0;" edge="1" parent="1" source="y9Y15gHdD0dzV6Nar54J-101" target="y9Y15gHdD0dzV6Nar54J-75">
          <mxGeometry relative="1" as="geometry" />
        </mxCell>
        <mxCell id="y9Y15gHdD0dzV6Nar54J-105" style="edgeStyle=orthogonalEdgeStyle;rounded=0;orthogonalLoop=1;jettySize=auto;html=1;exitX=0.5;exitY=1;exitDx=0;exitDy=0;" edge="1" parent="1" source="y9Y15gHdD0dzV6Nar54J-70">
          <mxGeometry relative="1" as="geometry">
            <mxPoint x="209.13" y="580" as="targetPoint" />
          </mxGeometry>
        </mxCell>
        <mxCell id="y9Y15gHdD0dzV6Nar54J-109" style="edgeStyle=orthogonalEdgeStyle;rounded=0;orthogonalLoop=1;jettySize=auto;html=1;exitX=0.5;exitY=1;exitDx=0;exitDy=0;entryX=0.5;entryY=0;entryDx=0;entryDy=0;" edge="1" parent="1" source="y9Y15gHdD0dzV6Nar54J-106" target="y9Y15gHdD0dzV6Nar54J-108">
          <mxGeometry relative="1" as="geometry" />
        </mxCell>
        <mxCell id="y9Y15gHdD0dzV6Nar54J-106" value="call run_within_tile_stas_reset(fls, shd, cm)" style="rounded=1;whiteSpace=wrap;html=1;fillColor=#CCFFCC;" vertex="1" parent="1">
          <mxGeometry x="508.6" y="550" width="241.4" height="30" as="geometry" />
        </mxCell>
        <mxCell id="y9Y15gHdD0dzV6Nar54J-110" style="rounded=0;orthogonalLoop=1;jettySize=auto;html=1;" edge="1" parent="1" source="y9Y15gHdD0dzV6Nar54J-108" target="y9Y15gHdD0dzV6Nar54J-81">
          <mxGeometry relative="1" as="geometry" />
        </mxCell>
        <mxCell id="y9Y15gHdD0dzV6Nar54J-108" value="call irrigation_within_tile(fls, shd, cm)" style="rounded=1;whiteSpace=wrap;html=1;fillColor=#FFE599;" vertex="1" parent="1">
          <mxGeometry x="513" y="605" width="241.4" height="30" as="geometry" />
        </mxCell>
        <mxCell id="y9Y15gHdD0dzV6Nar54J-113" style="rounded=0;orthogonalLoop=1;jettySize=auto;html=1;" edge="1" parent="1" source="y9Y15gHdD0dzV6Nar54J-111" target="y9Y15gHdD0dzV6Nar54J-83">
          <mxGeometry relative="1" as="geometry" />
        </mxCell>
        <mxCell id="y9Y15gHdD0dzV6Nar54J-111" value="call irrigation_write_output(fls, shd, cm)" style="rounded=1;whiteSpace=wrap;html=1;fillColor=#FFE599;" vertex="1" parent="1">
          <mxGeometry x="524.2399999999999" y="940" width="241.4" height="30" as="geometry" />
        </mxCell>
        <mxCell id="y9Y15gHdD0dzV6Nar54J-115" style="edgeStyle=orthogonalEdgeStyle;rounded=0;orthogonalLoop=1;jettySize=auto;html=1;entryX=0.5;entryY=0;entryDx=0;entryDy=0;" edge="1" source="y9Y15gHdD0dzV6Nar54J-116" target="y9Y15gHdD0dzV6Nar54J-122" parent="1">
          <mxGeometry relative="1" as="geometry" />
        </mxCell>
        <mxCell id="y9Y15gHdD0dzV6Nar54J-116" value="&lt;b&gt;run_within_tile_stas_reset&lt;/b&gt;" style="rounded=1;whiteSpace=wrap;html=1;" vertex="1" parent="1">
          <mxGeometry x="61.72000000000003" y="1220" width="167.59" height="60" as="geometry" />
        </mxCell>
        <mxCell id="y9Y15gHdD0dzV6Nar54J-117" style="edgeStyle=orthogonalEdgeStyle;rounded=0;orthogonalLoop=1;jettySize=auto;html=1;exitX=0.5;exitY=1;exitDx=0;exitDy=0;entryX=0.5;entryY=0;entryDx=0;entryDy=0;" edge="1" source="y9Y15gHdD0dzV6Nar54J-118" target="y9Y15gHdD0dzV6Nar54J-123" parent="1">
          <mxGeometry relative="1" as="geometry" />
        </mxCell>
        <mxCell id="y9Y15gHdD0dzV6Nar54J-118" value="Assigns tile variables e.g.&amp;nbsp;vs%tile%lqwsice to 0" style="whiteSpace=wrap;html=1;rounded=1;" vertex="1" parent="1">
          <mxGeometry x="24.7" y="1480" width="240" height="60" as="geometry" />
        </mxCell>
        <mxCell id="y9Y15gHdD0dzV6Nar54J-119" style="edgeStyle=orthogonalEdgeStyle;rounded=0;orthogonalLoop=1;jettySize=auto;html=1;entryX=0.5;entryY=0;entryDx=0;entryDy=0;" edge="1" source="y9Y15gHdD0dzV6Nar54J-120" target="y9Y15gHdD0dzV6Nar54J-118" parent="1">
          <mxGeometry relative="1" as="geometry" />
        </mxCell>
        <mxCell id="y9Y15gHdD0dzV6Nar54J-120" value="&lt;div&gt;ro%RUNTILE == True&lt;/div&gt;" style="rhombus;whiteSpace=wrap;html=1;rounded=1;fillColor=#F19C99;" vertex="1" parent="1">
          <mxGeometry x="51.25999999999999" y="1390" width="186.89" height="60" as="geometry" />
        </mxCell>
        <mxCell id="y9Y15gHdD0dzV6Nar54J-121" style="edgeStyle=orthogonalEdgeStyle;rounded=0;orthogonalLoop=1;jettySize=auto;html=1;entryX=0.5;entryY=0;entryDx=0;entryDy=0;" edge="1" source="y9Y15gHdD0dzV6Nar54J-122" target="y9Y15gHdD0dzV6Nar54J-120" parent="1">
          <mxGeometry relative="1" as="geometry" />
        </mxCell>
        <mxCell id="y9Y15gHdD0dzV6Nar54J-122" value="Initialize variables and parameters e.g. fls, shd, cm etc." style="rounded=1;whiteSpace=wrap;html=1;" vertex="1" parent="1">
          <mxGeometry x="65.25" y="1306.41" width="157.87" height="50" as="geometry" />
        </mxCell>
        <mxCell id="y9Y15gHdD0dzV6Nar54J-123" value="end subroutine" style="whiteSpace=wrap;html=1;rounded=1;" vertex="1" parent="1">
          <mxGeometry x="90.52999999999994" y="1560" width="111.19" height="40" as="geometry" />
        </mxCell>
      </root>
    </mxGraphModel>
  </diagram>
</mxfile>
